<svg width="1134" height="1312" viewBox="0 0 1134 1312" fill="none" xmlns="http://www.w3.org/2000/svg" xmlns:xlink="http://www.w3.org/1999/xlink">
<path d="M654.382,62.283C797.928,29.499 982.796,-53.915 1085.178,51.908C1192.952,163.304 1079.356,350.568 1083.204,505.516C1085.63,603.208 1103.692,693.064 1103.524,790.786C1103.264,942.188 1184.156,1121.65 1081.954,1233.354C982.704,1341.83 797.43,1315.666 654.382,1281.686C529.938,1252.126 459.626,1130.266 352.67,1060.12C237.464,984.562 40.696,988.91 5.053,855.83C-31.066,720.97 136.027,620.884 202.088,497.89C252.604,403.842 269.31,294.736 346.204,220.68C431.482,138.548 538.956,88.645 654.382,62.283Z" clip-rule="evenodd" fill-rule="evenodd" fill="#E8E36D"/>
</svg>
